<svg width="1440" height="600" viewBox="0 0 1440 600" fill="none" xmlns="http://www.w3.org/2000/svg">
  <rect width="1440" height="600" fill="#FFF5F7"/>
  <path d="M0 0V380.5C54.5 380.5 119 440.5 180 440.5C241 440.5 289.5 340.5 360 340.5C430.5 340.5 494.5 480.5 600 480.5C705.5 480.5 764.5 320.5 860 320.5C955.5 320.5 1014.5 460.5 1120 460.5C1225.5 460.5 1289.5 360.5 1360 360.5C1414.5 360.5 1440 400.5 1440 400.5V0H0Z" fill="#FCE4EC"/>
  <path d="M0 0V280.5C54.5 280.5 119 340.5 180 340.5C241 340.5 289.5 240.5 360 240.5C430.5 240.5 494.5 380.5 600 380.5C705.5 380.5 764.5 220.5 860 220.5C955.5 220.5 1014.5 360.5 1120 360.5C1225.5 360.5 1289.5 260.5 1360 260.5C1414.5 260.5 1440 300.5 1440 300.5V0H0Z" fill="#F8BBD0"/>
  <path d="M0 0V180.5C54.5 180.5 119 240.5 180 240.5C241 240.5 289.5 140.5 360 140.5C430.5 140.5 494.5 280.5 600 280.5C705.5 280.5 764.5 120.5 860 120.5C955.5 120.5 1014.5 260.5 1120 260.5C1225.5 260.5 1289.5 160.5 1360 160.5C1414.5 160.5 1440 200.5 1440 200.5V0H0Z" fill="#FF69B4" fill-opacity="0.9"/>
</svg>
